# xmcd
#
# Track frame offsets:
# 150
# 13458
# 25790
# 37371
# 51499
# 67580
# 87839
# 103938
# 118787
# 133295
#
# Disc length: 2030 seconds
#
#
# Revision: 0
# Processed by: cddbd v1.4PL0 Copyright (c) Steve Scherf et al.
# Submitted via: FreeRIP 2.00 
#
DISCID=9207ec0a
DTITLE=Ray Lashley - Simple Life
DYEAR=1999
DGENRE=Country
TTITLE0=let out the clutch
TTITLE1=it tears me apart
TTITLE2=why would I wanna go home
TTITLE3=simple life
TTITLE4=imagination
TTITLE5=i don't wan to lose you
TTITLE6=loveline
TTITLE7=she lies
TTITLE8=she don't give a damn about me
TTITLE9=nowhere
EXTD=
EXTT0=
EXTT1=
EXTT2=
EXTT3=
EXTT4=
EXTT5=
EXTT6=
EXTT7=
EXTT8=
EXTT9=
PLAYORDER=
